<?xml version="1.0" encoding="UTF-8" standalone="no"?>
<svg width="800" height="600" xmlns="http://www.w3.org/2000/svg">
  <!-- System boundary -->
  <rect x="300" y="50" width="450" height="500" rx="10" ry="10" fill="none" stroke="#333" stroke-width="2"/>
  <text x="525" y="80" font-family="Arial" font-size="20" text-anchor="middle">Product Management System</text>
  
  <!-- Use Cases -->
  <ellipse cx="525" cy="150" rx="120" ry="40" fill="#f8f9fa" stroke="#333" stroke-width="2"/>
  <text x="525" y="155" font-family="Arial" font-size="16" text-anchor="middle">View Products</text>
  
  <ellipse cx="525" cy="250" rx="120" ry="40" fill="#f8f9fa" stroke="#333" stroke-width="2"/>
  <text x="525" y="255" font-family="Arial" font-size="16" text-anchor="middle">View Available Products</text>
  
  <ellipse cx="525" cy="350" rx="120" ry="40" fill="#f8f9fa" stroke="#333" stroke-width="2"/>
  <text x="525" y="355" font-family="Arial" font-size="16" text-anchor="middle">View Products Sorted</text>
  
  <ellipse cx="525" cy="450" rx="120" ry="40" fill="#f8f9fa" stroke="#333" stroke-width="2"/>
  <text x="525" y="455" font-family="Arial" font-size="16" text-anchor="middle">Add Product</text>
  
  <ellipse cx="525" cy="550" rx="120" ry="40" fill="#f8f9fa" stroke="#333" stroke-width="2"/>
  <text x="525" y="555" font-family="Arial" font-size="16" text-anchor="middle">Delete Product</text>
  
  <!-- Actors -->
  <!-- Customer -->
  <circle cx="150" cy="200" r="30" fill="#f8f9fa" stroke="#333" stroke-width="2"/>
  <line x1="150" y1="230" x2="150" y2="300" stroke="#333" stroke-width="2"/>
  <line x1="150" y1="250" x2="100" y2="280" stroke="#333" stroke-width="2"/>
  <line x1="150" y1="250" x2="200" y2="280" stroke="#333" stroke-width="2"/>
  <line x1="150" y1="300" x2="120" y2="350" stroke="#333" stroke-width="2"/>
  <line x1="150" y1="300" x2="180" y2="350" stroke="#333" stroke-width="2"/>
  <text x="150" y="180" font-family="Arial" font-size="16" text-anchor="middle">Customer</text>
  
  <!-- Administrator -->
  <circle cx="150" cy="450" r="30" fill="#f8f9fa" stroke="#333" stroke-width="2"/>
  <line x1="150" y1="480" x2="150" y2="550" stroke="#333" stroke-width="2"/>
  <line x1="150" y1="500" x2="100" y2="530" stroke="#333" stroke-width="2"/>
  <line x1="150" y1="500" x2="200" y2="530" stroke="#333" stroke-width="2"/>
  <line x1="150" y1="550" x2="120" y2="600" stroke="#333" stroke-width="2"/>
  <line x1="150" y1="550" x2="180" y2="600" stroke="#333" stroke-width="2"/>
  <text x="150" y="430" font-family="Arial" font-size="16" text-anchor="middle">Administrator</text>
  
  <!-- Connections -->
  <line x1="180" y1="200" x2="405" y2="150" stroke="#333" stroke-width="2"/>
  <line x1="180" y1="200" x2="405" y2="250" stroke="#333" stroke-width="2"/>
  <line x1="180" y1="200" x2="405" y2="350" stroke="#333" stroke-width="2"/>
  
  <line x1="180" y1="450" x2="405" y2="450" stroke="#333" stroke-width="2"/>
  <line x1="180" y1="450" x2="405" y2="550" stroke="#333" stroke-width="2"/>
</svg>
